<svg xmlns="http://www.w3.org/2000/svg" width="21" height="22"><path fill="#a9a9a9" d="M19.25 2.025h-2.844V.648c0-.38-.294-.69-.656-.69-.363 0-.656.31-.656.69v1.377h-3.938V.648c0-.38-.294-.69-.655-.69-.36 0-.654.31-.654.69v1.377h-3.94V.648c0-.38-.293-.69-.655-.69-.362 0-.656.31-.656.69v1.377H1.75C.784 2.025 0 2.847 0 3.862v16.302C0 21.18.784 22 1.75 22h17.5c.967 0 1.75-.82 1.75-1.836V3.862c0-1.015-.783-1.837-1.75-1.837zm.438 18.14c0 .252-.195.458-.437.458H1.75c-.24 0-.438-.206-.438-.46v-16.3c0-.254.196-.46.438-.46h2.844V4.78c0 .382.294.69.657.69.365 0 .66-.308.66-.69V3.404h3.937V4.78c0 .382.294.69.657.69.36 0 .655-.308.655-.69V3.404h3.937V4.78c0 .382.293.69.656.69.363 0 .657-.308.657-.69V3.404h2.844c.24 0 .437.206.437.46v16.3z"/><path fill="#a9a9a9" d="M4.594 8.225H7.22v2.066H4.593zm0 3.443H7.22v2.067H4.593zm0 3.444H7.22v2.066H4.593zm4.594 0h2.625v2.066H9.188zm0-3.444h2.625v2.067H9.188zm0-3.443h2.625v2.066H9.188zm4.592 6.887h2.626v2.066H13.78zm0-3.444h2.626v2.067H13.78zm0-3.443h2.626v2.066H13.78z"/></svg>